<svg id="visual" viewBox="0 0 1920 940" width="1920" height="940" xmlns="http://www.w3.org/2000/svg" xmlns:xlink="http://www.w3.org/1999/xlink" version="1.1"><rect x="0" y="0" width="1920" height="940" fill="#FFFFFF"></rect><g transform="translate(937.2598575854735 453.29584548218827)"><path d="M196.2 -224.9C244.9 -192.9 268.7 -122.2 263.7 -59.9C258.8 2.5 225.1 56.5 196.4 120.3C167.8 184.1 144.2 257.7 98.7 276.5C53.2 295.4 -14.1 259.5 -66 222.7C-117.9 185.8 -154.3 148 -180.7 103.7C-207 59.4 -223.1 8.6 -217.9 -41.4C-212.7 -91.5 -186 -140.7 -146.2 -174.4C-106.3 -208 -53.1 -226 10.3 -238.2C73.7 -250.5 147.4 -257 196.2 -224.9" fill="#065d93"></path></g></svg>